<svg width="78" height="248" viewBox="0 0 78 248" fill="none" xmlns="http://www.w3.org/2000/svg">
<g filter="url(#filter0_d_165_1379)">
<path fill-rule="evenodd" clip-rule="evenodd" d="M39 70C56.1208 70 70 56.1208 70 39C70 21.8792 56.1208 8 39 8C21.8792 8 8 21.8792 8 39C8 56.1208 21.8792 70 39 70Z" fill="white"/>
</g>
<path fill-rule="evenodd" clip-rule="evenodd" d="M39 19C27.7324 19 19 27.2536 19 38.4007C19 44.2317 21.3903 49.27 25.2817 52.7509C25.6076 53.0447 25.8048 53.4511 25.8209 53.8898L25.9296 57.4472C25.9658 58.582 27.1368 59.3184 28.1751 58.8637L32.1429 57.1132C32.4809 56.9643 32.8551 56.9361 33.2093 57.0327C35.0322 57.5357 36.9759 57.8013 39 57.8013C50.2676 57.8013 59 49.5477 59 38.4007C59 27.2536 50.2676 19 39 19Z" fill="url(#paint0_linear_165_1379)"/>
<path fill-rule="evenodd" clip-rule="evenodd" d="M26.992 44.0748L32.8672 34.7547C33.8008 33.2738 35.8048 32.9036 37.2052 33.9539L41.8773 37.459C42.3078 37.7809 42.8954 37.7769 43.3219 37.455L49.6318 32.6662C50.4728 32.0263 51.5755 33.0364 51.0081 33.9298L45.1368 43.2458C44.2032 44.7267 42.1992 45.0969 40.7988 44.0466L36.1268 40.5415C35.6962 40.2196 35.1087 40.2236 34.6821 40.5455L28.3682 45.3384C27.5272 45.9782 26.4245 44.9681 26.992 44.0748Z" fill="white"/>
<path fill-rule="evenodd" clip-rule="evenodd" d="M39 19C27.7324 19 19 27.2536 19 38.4007C19 44.2317 21.3903 49.27 25.2817 52.7509C25.6076 53.0447 25.8048 53.4511 25.8209 53.8898L25.9296 57.4472C25.9658 58.582 27.1368 59.3184 28.1751 58.8637L32.1429 57.1132C32.4809 56.9643 32.8551 56.9361 33.2093 57.0327C35.0322 57.5357 36.9759 57.8013 39 57.8013C50.2676 57.8013 59 49.5477 59 38.4007C59 27.2536 50.2676 19 39 19Z" fill="#0468BE"/>
<path fill-rule="evenodd" clip-rule="evenodd" d="M26.992 44.0748L32.8672 34.7547C33.8008 33.2738 35.8048 32.9036 37.2052 33.9539L41.8773 37.459C42.3078 37.7809 42.8954 37.7769 43.3219 37.455L49.6318 32.6662C50.4728 32.0263 51.5755 33.0364 51.0081 33.9298L45.1368 43.2458C44.2032 44.7267 42.1992 45.0969 40.7988 44.0466L36.1268 40.5415C35.6962 40.2196 35.1087 40.2236 34.6821 40.5455L28.3682 45.3384C27.5272 45.9782 26.4245 44.9681 26.992 44.0748Z" fill="white"/>
<g filter="url(#filter1_d_165_1379)">
<path fill-rule="evenodd" clip-rule="evenodd" d="M39 240C56.1208 240 70 226.121 70 209C70 191.879 56.1208 178 39 178C21.8792 178 8 191.879 8 209C8 226.121 21.8792 240 39 240Z" fill="white"/>
</g>
<path d="M39 189C35.0444 189 31.1776 190.173 27.8886 192.371C24.5996 194.568 22.0362 197.692 20.5224 201.346C19.0087 205.001 18.6126 209.022 19.3843 212.902C20.156 216.781 22.0608 220.345 24.8579 223.142C27.6549 225.939 31.2186 227.844 35.0982 228.616C38.9778 229.387 42.9991 228.991 46.6537 227.478C50.3082 225.964 53.4318 223.4 55.6294 220.111C57.827 216.822 59 212.956 59 209C58.9939 203.698 56.8848 198.614 53.1354 194.865C49.386 191.115 44.3025 189.006 39 189ZM46.9523 213.22C46.8022 213.355 46.6269 213.46 46.4365 213.527C46.246 213.595 46.0442 213.624 45.8424 213.613C45.6407 213.603 45.443 213.552 45.2607 213.465C45.0783 213.378 44.9149 213.256 44.7798 213.106L39 206.685L33.2202 213.106C32.9452 213.401 32.5652 213.576 32.1621 213.594C31.759 213.612 31.365 213.471 31.0651 213.201C30.7652 212.931 30.5834 212.554 30.5588 212.151C30.5342 211.748 30.6688 211.352 30.9337 211.047L37.8567 203.355C38.0047 203.201 38.1823 203.079 38.3787 202.995C38.5752 202.912 38.7865 202.868 39 202.868C39.2135 202.868 39.4248 202.912 39.6213 202.995C39.8177 203.079 39.9953 203.201 40.1433 203.355L47.0664 211.047C47.3391 211.351 47.4803 211.75 47.459 212.157C47.4376 212.565 47.2554 212.947 46.9523 213.22Z" fill="#0468BE"/>
<g filter="url(#filter2_d_165_1379)">
<path fill-rule="evenodd" clip-rule="evenodd" d="M39 155C56.1208 155 70 141.121 70 124C70 106.879 56.1208 93 39 93C21.8792 93 8 106.879 8 124C8 141.121 21.8792 155 39 155Z" fill="white"/>
</g>
<path d="M49.6641 125H52.9975C52.9975 116.717 46.2808 110 37.9975 110V113.333C44.4475 113.333 49.6641 118.55 49.6641 125ZM42.9975 125H46.3308C46.3308 120.4 42.5975 116.667 37.9975 116.667V120C40.7641 120 42.9975 122.233 42.9975 125ZM40.0141 133.95C35.2975 131.55 31.4308 127.7 29.0308 122.967L33.2475 118.75L32.2308 110H23.0475C22.0808 126.967 36.0308 140.917 52.9975 139.95V130.767L44.2141 129.75L40.0141 133.95Z" fill="#0468BE"/>
<defs>
<filter id="filter0_d_165_1379" x="0" y="0" width="78" height="78" filterUnits="userSpaceOnUse" color-interpolation-filters="sRGB">
<feFlood flood-opacity="0" result="BackgroundImageFix"/>
<feColorMatrix in="SourceAlpha" type="matrix" values="0 0 0 0 0 0 0 0 0 0 0 0 0 0 0 0 0 0 127 0" result="hardAlpha"/>
<feOffset/>
<feGaussianBlur stdDeviation="4"/>
<feColorMatrix type="matrix" values="0 0 0 0 0 0 0 0 0 0 0 0 0 0 0 0 0 0 0.12 0"/>
<feBlend mode="normal" in2="BackgroundImageFix" result="effect1_dropShadow_165_1379"/>
<feBlend mode="normal" in="SourceGraphic" in2="effect1_dropShadow_165_1379" result="shape"/>
</filter>
<filter id="filter1_d_165_1379" x="0" y="170" width="78" height="78" filterUnits="userSpaceOnUse" color-interpolation-filters="sRGB">
<feFlood flood-opacity="0" result="BackgroundImageFix"/>
<feColorMatrix in="SourceAlpha" type="matrix" values="0 0 0 0 0 0 0 0 0 0 0 0 0 0 0 0 0 0 127 0" result="hardAlpha"/>
<feOffset/>
<feGaussianBlur stdDeviation="4"/>
<feColorMatrix type="matrix" values="0 0 0 0 0 0 0 0 0 0 0 0 0 0 0 0 0 0 0.12 0"/>
<feBlend mode="normal" in2="BackgroundImageFix" result="effect1_dropShadow_165_1379"/>
<feBlend mode="normal" in="SourceGraphic" in2="effect1_dropShadow_165_1379" result="shape"/>
</filter>
<filter id="filter2_d_165_1379" x="0" y="85" width="78" height="78" filterUnits="userSpaceOnUse" color-interpolation-filters="sRGB">
<feFlood flood-opacity="0" result="BackgroundImageFix"/>
<feColorMatrix in="SourceAlpha" type="matrix" values="0 0 0 0 0 0 0 0 0 0 0 0 0 0 0 0 0 0 127 0" result="hardAlpha"/>
<feOffset/>
<feGaussianBlur stdDeviation="4"/>
<feColorMatrix type="matrix" values="0 0 0 0 0 0 0 0 0 0 0 0 0 0 0 0 0 0 0.12 0"/>
<feBlend mode="normal" in2="BackgroundImageFix" result="effect1_dropShadow_165_1379"/>
<feBlend mode="normal" in="SourceGraphic" in2="effect1_dropShadow_165_1379" result="shape"/>
</filter>
<linearGradient id="paint0_linear_165_1379" x1="39" y1="19" x2="39" y2="59.0005" gradientUnits="userSpaceOnUse">
<stop stop-color="#00B2FF"/>
<stop offset="1" stop-color="#006AFF"/>
</linearGradient>
</defs>
</svg>
